<svg width="32" height="32" viewBox="0 0 32 32" fill="none" xmlns="http://www.w3.org/2000/svg">
<rect x="0.5" y="0.5" width="31" height="31" rx="15.5" fill="white"/>
<rect x="0.5" y="0.5" width="31" height="31" rx="15.5" stroke="#E1E2E6"/>
<path d="M15.1602 9.1875C15.1602 8.96875 15.3789 8.75 15.5977 8.75C15.8438 8.75 16.0625 8.96875 16.0625 9.1875V9.65234C18.25 9.87109 20 11.7305 20 14V14.8203C20 15.9961 20.4648 17.1445 21.3125 17.9922L21.3945 18.0742C21.6133 18.293 21.75 18.5938 21.75 18.9219C21.75 19.6055 21.2031 20.125 20.5195 20.125H10.7031C10.0195 20.125 9.5 19.6055 9.5 18.9219C9.5 18.5938 9.60938 18.293 9.82812 18.0742L9.91016 17.9922C10.7578 17.1445 11.25 15.9961 11.25 14.8203V14C11.25 11.7305 12.9727 9.87109 15.1875 9.65234L15.1602 9.1875ZM15.5977 10.5C13.6836 10.5 12.0977 12.0859 12.0977 14V14.8203C12.0977 16.2422 11.5508 17.6094 10.5391 18.6211L10.457 18.6758C10.4023 18.7578 10.3477 18.8398 10.3477 18.9219C10.3477 19.1133 10.5117 19.25 10.7031 19.25H20.5195C20.7109 19.25 20.875 19.1133 20.875 18.9219C20.875 18.8398 20.8203 18.7578 20.7656 18.6758L20.6836 18.6211C19.6719 17.6094 19.125 16.2422 19.125 14.8203V14C19.125 12.0859 17.5391 10.5 15.5977 10.5ZM15.5977 21.875C15.9805 21.875 16.3086 21.6562 16.4453 21.3008C16.5273 21.082 16.7734 20.9453 16.9922 21.0273C17.2109 21.1094 17.3477 21.3555 17.2656 21.6016C17.0195 22.2852 16.3633 22.75 15.5977 22.75C14.8594 22.75 14.2031 22.2852 13.957 21.6016C13.875 21.3555 14.0117 21.1094 14.2305 21.0273C14.4492 20.9453 14.6953 21.082 14.7773 21.3008C14.9141 21.6562 15.2422 21.875 15.5977 21.875Z" fill="#666E80"/>
</svg>
