<svg width="32" height="32" viewBox="0 0 32 32" fill="none" xmlns="http://www.w3.org/2000/svg">
<path d="M14.8867 14.5742C15.3438 14.1172 16.1055 14.1172 16.5625 14.625L20.625 18.6875C21.1328 19.1445 21.1328 19.9062 20.625 20.3633C20.4219 20.6172 20.1172 20.7188 19.8125 20.7188C19.457 20.7188 19.1523 20.6172 18.9492 20.3633L16.9688 18.3828V23.5625C16.9688 24.2734 16.4102 24.7812 15.75 24.7812C15.0391 24.7812 14.5312 24.2734 14.5312 23.5625V18.3828L12.5 20.3633C12.043 20.8711 11.2812 20.8711 10.8242 20.3633C10.3164 19.9062 10.3164 19.1445 10.8242 18.6367L14.8867 14.5742ZM24.5352 8.02344C25.1445 8.63281 25.5 9.44531 25.5 10.3086V26C25.5 27.8281 24.0273 29.25 22.25 29.25H9.25C7.42188 29.25 6 27.8281 6 26V6.5C6 4.72266 7.42188 3.25 9.25 3.25H18.4414C19.3047 3.25 20.1172 3.60547 20.7266 4.21484L24.5352 8.02344ZM23.0625 26H23.0117V11.375H19C18.0859 11.375 17.375 10.6641 17.375 9.75V5.73828H9.25C8.79297 5.73828 8.4375 6.09375 8.4375 6.55078V26C8.4375 26.457 8.79297 26.8125 9.25 26.8125H22.25C22.6562 26.8125 23.0625 26.457 23.0625 26Z" fill="#4CA370"/>
</svg>
