<svg width="32" height="32" viewBox="0 0 32 32" fill="none" xmlns="http://www.w3.org/2000/svg">
<path d="M3.4375 26C3.4375 26.457 3.79297 26.8125 4.25 26.8125H20.3477C19.9922 28.2344 18.7227 29.25 17.25 29.25H4.19922C2.42188 29.25 1 27.8281 1 26V6.5C1 4.72266 2.42188 3.25 4.19922 3.25H13.4414C14.3047 3.25 15.1172 3.60547 15.7266 4.21484L19.5352 8.02344C20.1445 8.63281 20.5 9.44531 20.5 10.3086V13.7617L18.0117 16.1992V11.375H14C13.0859 11.375 12.375 10.6641 12.375 9.75V5.73828H4.25C3.79297 5.73828 3.4375 6.09375 3.4375 6.55078V26ZM15.8281 20.668L23.8516 12.6953L27.3047 16.1484L19.332 24.1719C19.1797 24.3242 18.9766 24.375 18.7734 24.375H14.8125C14 24.375 13.2383 23.918 12.8828 23.207C12.7305 22.9023 12.4766 22.8516 12.375 22.8516C12.2227 22.8516 11.9688 22.9023 11.8164 23.1562L11.4609 23.9688C11.3086 24.2227 11.0039 24.375 10.75 24.375H10.6484C10.3438 24.375 10.0391 24.1719 9.9375 23.8164L9.125 21.2773L8.56641 22.9023C8.26172 23.8164 7.44922 24.375 6.48438 24.375H5.875C5.41797 24.375 5.0625 24.0195 5.0625 23.5625C5.0625 23.1562 5.41797 22.75 5.875 22.75H6.48438C6.73828 22.75 6.94141 22.5977 7.04297 22.3945L7.95703 19.6016C8.10938 19.0938 8.56641 18.7891 9.125 18.7891C9.63281 18.7891 10.0898 19.0938 10.2422 19.6016L10.9531 21.7344C11.9688 20.9219 13.6953 21.2266 14.3047 22.4453C14.4062 22.6484 14.6094 22.75 14.8125 22.75H15.625V21.2266C15.625 21.0234 15.6758 20.8203 15.8281 20.668ZM29.8438 11.7812C30.3516 12.2891 30.3516 13.1016 29.8438 13.6094L28.4727 14.9805L25.0195 11.5273L26.3906 10.1562C26.8984 9.64844 27.7109 9.64844 28.2188 10.1562L29.8438 11.7812Z" fill="#006AF5"/>
</svg>
