<svg width="32" height="32" viewBox="0 0 32 32" fill="none" xmlns="http://www.w3.org/2000/svg">
<path d="M24.5352 8.02344C25.1445 8.63281 25.5 9.44531 25.5 10.3086V26C25.5 27.8281 24.0273 29.25 22.25 29.25H9.25C7.42188 29.25 6 27.8281 6 26V6.5C6 4.72266 7.42188 3.25 9.25 3.25H18.4414C19.3047 3.25 20.1172 3.60547 20.7266 4.21484L24.5352 8.02344ZM23.0625 26H23.0117V11.375H19C18.0859 11.375 17.375 10.6641 17.375 9.75V5.73828H9.25C8.79297 5.73828 8.4375 6.09375 8.4375 6.55078V26C8.4375 26.457 8.79297 26.8125 9.25 26.8125H22.25C22.6562 26.8125 23.0625 26.457 23.0625 26ZM10.875 17.4688C10.875 16.8086 11.3828 16.25 12.0938 16.25H19.4062C20.0664 16.25 20.625 16.8086 20.625 17.4688C20.625 18.1797 20.0664 18.6875 19.4062 18.6875H12.0938C11.3828 18.6875 10.875 18.1797 10.875 17.4688ZM19.4062 21.125C20.0664 21.125 20.625 21.6836 20.625 22.3438C20.625 23.0547 20.0664 23.5625 19.4062 23.5625H12.0938C11.3828 23.5625 10.875 23.0547 10.875 22.3438C10.875 21.6836 11.3828 21.125 12.0938 21.125H19.4062Z" fill="#E0241A"/>
</svg>
