<svg width="64" height="50" viewBox="0 0 64 50" fill="none" xmlns="http://www.w3.org/2000/svg">
<path d="M32 0C49.625 0 64 14.375 64 32C64 49.75 49.625 64 32 64C14.25 64 0 49.75 0 32C0 14.375 14.25 0 32 0ZM32 58C46.25 58 58 46.375 58 32C58 17.75 46.25 6 32 6C17.625 6 6 17.75 6 32C6 46.375 17.625 58 32 58ZM37 42C38.625 42 40 43.375 40 45C40 46.75 38.625 48 37 48H27C25.25 48 24 46.75 24 45C24 43.375 25.25 42 27 42H29V34H28C26.25 34 25 32.75 25 31C25 29.375 26.25 28 28 28H32C33.625 28 35 29.375 35 31V42H37ZM32 24C29.75 24 28 22.25 28 20C28 17.875 29.75 16 32 16C34.125 16 36 17.875 36 20C36 22.25 34.125 24 32 24Z" fill="#C6DFF1" fill-opacity="0.5"/>
</svg>
