<svg width="73" height="55" viewBox="0 0 73 55" fill="none" xmlns="http://www.w3.org/2000/svg">
<path d="M6.33337 56C6.33337 57.125 7.20837 58 8.33337 58H47.9584C47.0834 61.5 43.9584 64 40.3334 64H8.20837C3.83337 64 0.333374 60.5 0.333374 56V8C0.333374 3.625 3.83337 0 8.20837 0H30.9584C33.0834 0 35.0834 0.875 36.5834 2.375L45.9584 11.75C47.4584 13.25 48.3334 15.25 48.3334 17.375V25.875L42.2084 31.875V20H32.3334C30.0834 20 28.3334 18.25 28.3334 16V6.125H8.33337C7.20837 6.125 6.33337 7 6.33337 8.125V56ZM36.8334 42.875L56.5834 23.25L65.0834 31.75L45.4584 51.5C45.0834 51.875 44.5834 52 44.0834 52H34.3334C32.3334 52 30.4584 50.875 29.5834 49.125C29.2084 48.375 28.5834 48.25 28.3334 48.25C27.9584 48.25 27.3334 48.375 26.9584 49L26.0834 51C25.7084 51.625 24.9584 52 24.3334 52H24.0834C23.3334 52 22.5834 51.5 22.3334 50.625L20.3334 44.375L18.9584 48.375C18.2084 50.625 16.2084 52 13.8334 52H12.3334C11.2084 52 10.3334 51.125 10.3334 50C10.3334 49 11.2084 48 12.3334 48H13.8334C14.4584 48 14.9584 47.625 15.2084 47.125L17.4584 40.25C17.8334 39 18.9584 38.25 20.3334 38.25C21.5834 38.25 22.7084 39 23.0834 40.25L24.8334 45.5C27.3334 43.5 31.5834 44.25 33.0834 47.25C33.3334 47.75 33.8334 48 34.3334 48H36.3334V44.25C36.3334 43.75 36.4584 43.25 36.8334 42.875ZM71.3334 21C72.5834 22.25 72.5834 24.25 71.3334 25.5L67.9584 28.875L59.4584 20.375L62.8334 17C64.0834 15.75 66.0834 15.75 67.3334 17L71.3334 21Z" fill="#F0DF86" fill-opacity="0.5"/>
</svg>
