<svg width="65" height="54" viewBox="0 0 65 54" fill="none" xmlns="http://www.w3.org/2000/svg">
<path d="M29.6666 32C29.6666 33 30.1666 33.875 30.9166 34.5L42.9166 42.5C44.2916 43.375 46.1666 43 47.0416 41.625C48.0416 40.25 47.6666 38.375 46.2916 37.5L35.6666 30.375V15C35.6666 13.25 34.2916 12 32.5416 12C30.9166 12 29.5416 13.25 29.5416 15L29.6666 32ZM0.666626 32C0.666626 49.625 14.9166 64 32.6666 64C50.2916 64 64.6666 49.625 64.6666 32C64.6666 14.25 50.2916 0 32.6666 0C14.9166 0 0.666626 14.25 0.666626 32ZM32.6666 6C46.9166 6 58.6666 17.625 58.6666 32C58.6666 46.25 46.9166 58 32.6666 58C18.2916 58 6.66663 46.25 6.66663 32C6.66663 17.625 18.2916 6 32.6666 6Z" fill="#E9D3B9" fill-opacity="0.5"/>
</svg>
