<svg width="48" height="61" viewBox="0 0 48 61" fill="none" xmlns="http://www.w3.org/2000/svg">
<path d="M45.625 11.75C47.125 13.25 48 15.25 48 17.375V56C48 60.5 44.375 64 40 64H8C3.5 64 0 60.5 0 56V8C0 3.625 3.5 0 8 0H30.625C32.75 0 34.75 0.875 36.25 2.375L45.625 11.75ZM42 56H41.875V20H32C29.75 20 28 18.25 28 16V6.125H8C6.875 6.125 6 7 6 8.125V56C6 57.125 6.875 58 8 58H8.125C9.125 52.375 14 48 20 48H28C33.875 48 38.75 52.375 39.75 58H40C41 58 42 57.125 42 56ZM24 28C28.375 28 32 31.625 32 36C32 40.5 28.375 44 24 44C19.5 44 16 40.5 16 36C16 31.625 19.5 28 24 28Z" fill="#C6DFF1" fill-opacity="0.5"/>
</svg>
