<svg width="65" height="54" viewBox="0 0 65 54" fill="none" xmlns="http://www.w3.org/2000/svg">
<path d="M30.7083 42.5C29.3333 43.875 27.2083 43.875 25.8333 42.5L17.8333 34.5C16.4583 33.125 16.4583 31 17.8333 29.625C19.2083 28.25 21.3333 28.25 22.7083 29.625L28.3333 35.125L41.8333 21.625C43.2083 20.25 45.3333 20.25 46.7083 21.625C48.0833 23 48.0833 25.125 46.7083 26.5L30.7083 42.5ZM64.3333 32C64.3333 49.75 49.9583 64 32.3333 64C14.5833 64 0.333252 49.75 0.333252 32C0.333252 14.375 14.5833 0 32.3333 0C49.9583 0 64.3333 14.375 64.3333 32ZM32.3333 6C17.9583 6 6.33325 17.75 6.33325 32C6.33325 46.375 17.9583 58 32.3333 58C46.5833 58 58.3333 46.375 58.3333 32C58.3333 17.75 46.5833 6 32.3333 6Z" fill="#ACD69E" fill-opacity="0.5"/>
</svg>
