<svg width="65" height="54" viewBox="0 0 65 54" fill="none" xmlns="http://www.w3.org/2000/svg">
<path d="M22.5416 21.875C23.6666 20.75 25.5416 20.75 26.6666 21.875L32.5416 27.875L38.5416 21.875C39.6666 20.75 41.5416 20.75 42.6666 21.875C43.9166 23.125 43.9166 25 42.6666 26.125L36.7916 32L42.6666 37.875C43.9166 39.125 43.9166 41 42.6666 42.125C41.5416 43.375 39.6666 43.375 38.5416 42.125L32.5416 36.25L26.6666 42.125C25.5416 43.375 23.6666 43.375 22.5416 42.125C21.2916 41 21.2916 39.125 22.5416 37.875L28.4166 32L22.5416 26.125C21.2916 25 21.2916 23.125 22.5416 21.875ZM64.6666 32C64.6666 49.75 50.2916 64 32.6666 64C14.9166 64 0.666626 49.75 0.666626 32C0.666626 14.375 14.9166 0 32.6666 0C50.2916 0 64.6666 14.375 64.6666 32ZM32.6666 6C18.2916 6 6.66663 17.75 6.66663 32C6.66663 46.375 18.2916 58 32.6666 58C46.9166 58 58.6666 46.375 58.6666 32C58.6666 17.75 46.9166 6 32.6666 6Z" fill="#FFC8C8" fill-opacity="0.5"/>
</svg>
