<svg width="23" height="16" viewBox="0 0 23 16" fill="none" xmlns="http://www.w3.org/2000/svg">
<rect x="0.599976" width="22.4" height="16" rx="2" fill="white"/>
<mask id="mask0_378_4368" style="mask-type:luminance" maskUnits="userSpaceOnUse" x="0" y="0" width="23" height="16">
<rect x="0.599976" width="22.4" height="16" rx="2" fill="white"/>
</mask>
<g mask="url(#mask0_378_4368)">
<path fill-rule="evenodd" clip-rule="evenodd" d="M23 0H0.599976V1.06667H23V0ZM23 2.13235H0.599976V3.19902H23V2.13235ZM0.599976 4.26654H23V5.33321H0.599976V4.26654ZM23 6.3989H0.599976V7.46556H23V6.3989ZM0.599976 8.53401H23V9.60067H0.599976V8.53401ZM23 10.6654H0.599976V11.7321H23V10.6654ZM0.599976 12.8006H23V13.8672H0.599976V12.8006ZM23 14.9329H0.599976V15.9996H23V14.9329Z" fill="#D02F44"/>
<rect x="0.599976" width="9.6" height="7.46667" fill="#46467F"/>
<g filter="url(#filter0_d_378_4368)">
<path fill-rule="evenodd" clip-rule="evenodd" d="M4.86679 1.5995C4.86679 1.89405 4.62801 2.13283 4.33346 2.13283C4.03891 2.13283 3.80013 1.89405 3.80013 1.5995C3.80013 1.30494 4.03891 1.06616 4.33346 1.06616C4.62801 1.06616 4.86679 1.30494 4.86679 1.5995ZM2.73331 1.59973C2.73331 1.89428 2.49453 2.13306 2.19997 2.13306C1.90542 2.13306 1.66664 1.89428 1.66664 1.59973C1.66664 1.30517 1.90542 1.06639 2.19997 1.06639C2.49453 1.06639 2.73331 1.30517 2.73331 1.59973ZM6.46673 2.13283C6.76129 2.13283 7.00007 1.89405 7.00007 1.5995C7.00007 1.30494 6.76129 1.06616 6.46673 1.06616C6.17218 1.06616 5.9334 1.30494 5.9334 1.5995C5.9334 1.89405 6.17218 2.13283 6.46673 2.13283ZM9.13357 1.5995C9.13357 1.89405 8.89479 2.13283 8.60023 2.13283C8.30568 2.13283 8.0669 1.89405 8.0669 1.5995C8.0669 1.30494 8.30568 1.06616 8.60023 1.06616C8.89479 1.06616 9.13357 1.30494 9.13357 1.5995ZM3.2666 3.19901C3.56115 3.19901 3.79993 2.96022 3.79993 2.66567C3.79993 2.37112 3.56115 2.13234 3.2666 2.13234C2.97204 2.13234 2.73326 2.37112 2.73326 2.66567C2.73326 2.96022 2.97204 3.19901 3.2666 3.19901ZM5.93343 2.66567C5.93343 2.96022 5.69465 3.19901 5.4001 3.19901C5.10555 3.19901 4.86676 2.96022 4.86676 2.66567C4.86676 2.37112 5.10555 2.13234 5.4001 2.13234C5.69465 2.13234 5.93343 2.37112 5.93343 2.66567ZM7.5336 3.19901C7.82815 3.19901 8.06693 2.96022 8.06693 2.66567C8.06693 2.37112 7.82815 2.13234 7.5336 2.13234C7.23905 2.13234 7.00027 2.37112 7.00027 2.66567C7.00027 2.96022 7.23905 3.19901 7.5336 3.19901ZM9.13357 3.73185C9.13357 4.0264 8.89479 4.26518 8.60023 4.26518C8.30568 4.26518 8.0669 4.0264 8.0669 3.73185C8.0669 3.4373 8.30568 3.19852 8.60023 3.19852C8.89479 3.19852 9.13357 3.4373 9.13357 3.73185ZM6.46673 4.26518C6.76129 4.26518 7.00007 4.0264 7.00007 3.73185C7.00007 3.4373 6.76129 3.19852 6.46673 3.19852C6.17218 3.19852 5.9334 3.4373 5.9334 3.73185C5.9334 4.0264 6.17218 4.26518 6.46673 4.26518ZM4.86679 3.73185C4.86679 4.0264 4.62801 4.26518 4.33346 4.26518C4.03891 4.26518 3.80013 4.0264 3.80013 3.73185C3.80013 3.4373 4.03891 3.19852 4.33346 3.19852C4.62801 3.19852 4.86679 3.4373 4.86679 3.73185ZM2.19996 4.26518C2.49451 4.26518 2.73329 4.0264 2.73329 3.73185C2.73329 3.4373 2.49451 3.19852 2.19996 3.19852C1.90541 3.19852 1.66663 3.4373 1.66663 3.73185C1.66663 4.0264 1.90541 4.26518 2.19996 4.26518ZM3.79993 4.79894C3.79993 5.0935 3.56115 5.33228 3.2666 5.33228C2.97204 5.33228 2.73326 5.0935 2.73326 4.79894C2.73326 4.50439 2.97204 4.26561 3.2666 4.26561C3.56115 4.26561 3.79993 4.50439 3.79993 4.79894ZM5.4001 5.33228C5.69465 5.33228 5.93343 5.0935 5.93343 4.79894C5.93343 4.50439 5.69465 4.26561 5.4001 4.26561C5.10555 4.26561 4.86676 4.50439 4.86676 4.79894C4.86676 5.0935 5.10555 5.33228 5.4001 5.33228ZM8.06693 4.79894C8.06693 5.0935 7.82815 5.33228 7.5336 5.33228C7.23905 5.33228 7.00027 5.0935 7.00027 4.79894C7.00027 4.50439 7.23905 4.26561 7.5336 4.26561C7.82815 4.26561 8.06693 4.50439 8.06693 4.79894ZM8.60023 6.39937C8.89479 6.39937 9.13357 6.16059 9.13357 5.86604C9.13357 5.57149 8.89479 5.33271 8.60023 5.33271C8.30568 5.33271 8.0669 5.57149 8.0669 5.86604C8.0669 6.16059 8.30568 6.39937 8.60023 6.39937ZM7.00007 5.86604C7.00007 6.16059 6.76129 6.39937 6.46673 6.39937C6.17218 6.39937 5.9334 6.16059 5.9334 5.86604C5.9334 5.57149 6.17218 5.33271 6.46673 5.33271C6.76129 5.33271 7.00007 5.57149 7.00007 5.86604ZM4.33346 6.39937C4.62801 6.39937 4.86679 6.16059 4.86679 5.86604C4.86679 5.57149 4.62801 5.33271 4.33346 5.33271C4.03891 5.33271 3.80013 5.57149 3.80013 5.86604C3.80013 6.16059 4.03891 6.39937 4.33346 6.39937ZM2.73329 5.86604C2.73329 6.16059 2.49451 6.39937 2.19996 6.39937C1.90541 6.39937 1.66663 6.16059 1.66663 5.86604C1.66663 5.57149 1.90541 5.33271 2.19996 5.33271C2.49451 5.33271 2.73329 5.57149 2.73329 5.86604Z" fill="url(#paint0_linear_378_4368)"/>
</g>
</g>
<defs>
<filter id="filter0_d_378_4368" x="1.66663" y="1.06616" width="7.46692" height="6.33325" filterUnits="userSpaceOnUse" color-interpolation-filters="sRGB">
<feFlood flood-opacity="0" result="BackgroundImageFix"/>
<feColorMatrix in="SourceAlpha" type="matrix" values="0 0 0 0 0 0 0 0 0 0 0 0 0 0 0 0 0 0 127 0" result="hardAlpha"/>
<feOffset dy="1"/>
<feColorMatrix type="matrix" values="0 0 0 0 0 0 0 0 0 0 0 0 0 0 0 0 0 0 0.06 0"/>
<feBlend mode="normal" in2="BackgroundImageFix" result="effect1_dropShadow_378_4368"/>
<feBlend mode="normal" in="SourceGraphic" in2="effect1_dropShadow_378_4368" result="shape"/>
</filter>
<linearGradient id="paint0_linear_378_4368" x1="1.66663" y1="1.06616" x2="1.66663" y2="6.39937" gradientUnits="userSpaceOnUse">
<stop stop-color="white"/>
<stop offset="1" stop-color="#F0F0F0"/>
</linearGradient>
</defs>
</svg>
